<?xml version="1.0" standalone="no"?>
<!DOCTYPE svg PUBLIC "-//W3C//DTD SVG 20010904//EN"
 "http://www.w3.org/TR/2001/REC-SVG-20010904/DTD/svg10.dtd">
<svg version="1.0" xmlns="http://www.w3.org/2000/svg"
 width="512.000000pt" height="512.000000pt" viewBox="0 0 512.000000 512.000000"
 preserveAspectRatio="xMidYMid meet">
<metadata>
Created by potrace 1.14, written by Peter Selinger 2001-2017
</metadata>
<g transform="translate(0.000000,512.000000) scale(0.100000,-0.100000)"
fill="#000000" stroke="none">
<path d="M2492 5004 c-21 -20 -69 -115 -160 -314 -121 -265 -192 -427 -192
-436 0 -2 189 -4 420 -4 231 0 420 4 420 8 0 8 -103 235 -254 562 -42 91 -85
173 -95 184 -10 10 -39 20 -63 23 -40 5 -49 2 -76 -23z"/>
<path d="M2465 3627 c-94 -32 -164 -83 -210 -157 -149 -238 24 -550 305 -550
197 0 360 162 360 361 0 188 -153 347 -344 356 -41 1 -88 -3 -111 -10z"/>
<path d="M1866 2873 c-293 -704 -682 -1244 -1078 -1497 l-58 -37 0 -243 c0
-133 3 -298 7 -364 l6 -122 358 0 357 0 4 373 3 372 28 61 c66 142 215 222
364 195 31 -6 58 -9 60 -8 2 2 2 315 1 696 l-3 692 -49 -118z"/>
<path d="M3200 2297 c0 -383 1 -697 3 -697 2 0 29 5 60 11 149 27 298 -53 364
-195 l28 -61 3 -372 4 -373 357 0 358 0 6 122 c4 66 7 231 7 364 l0 243 -57
37 c-396 252 -781 786 -1074 1487 -28 67 -53 124 -55 126 -2 2 -4 -309 -4
-692z"/>
<path d="M1460 285 l0 -125 340 0 340 0 0 125 0 125 -340 0 -340 0 0 -125z"/>
<path d="M2980 285 l0 -125 340 0 340 0 0 125 0 125 -340 0 -340 0 0 -125z"/>
</g>
</svg>
